# xmcd CD database file
#
# Track frame offsets:
#	150
#	13851
#	26464
#	38959
#	51813
#	74750
#	91084
#	107343
#	118625
#	129127
#	144596
#	162872
#	176406
#
# Disc length: 2570 seconds
#
# Revision: 0
# Processed by: cddbd v1.5.2PL0 Copyright (c) Steve Scherf et al.
# Submitted via: ACXtractor (MTCDDB.DLL V2003.07.15)
#
DISCID=a40a080d
DTITLE=Dean Perrett - The Shelter of the Cross
DYEAR=2013
DGENRE=Country
TTITLE0=Fear God
TTITLE1=All Prayed Up
TTITLE2=Follow On
TTITLE3=The Bright Tomorrow
TTITLE4=The Light House
TTITLE5=A Beautiful Life
TTITLE6=The Shelter of the Cross
TTITLE7=River of Jordon
TTITLE8=Oh ye Must be Born Again
TTITLE9=Where the Soul of Man Never Dies
TTITLE10=When They Ring those Golden Bells
TTITLE11=The Battle of Armageddon
TTITLE12=Glory Bound Train
EXTD=ID3G:   2 YEAR: 2013
EXTT0=
EXTT1=
EXTT2=
EXTT3=
EXTT4=
EXTT5=
EXTT6=
EXTT7=
EXTT8=
EXTT9=
EXTT10=
EXTT11=
EXTT12=
PLAYORDER=
